<svg width="32" height="32" viewBox="0 0 32 32" fill="none" xmlns="http://www.w3.org/2000/svg">
<path d="M15.1111 32C23.4567 32 30.2222 25.2345 30.2222 16.8889C30.2222 8.54325 23.4567 1.77778 15.1111 1.77778C6.76547 1.77778 0 8.54325 0 16.8889C0 25.2345 6.76547 32 15.1111 32Z" fill="#FFCC4D"/>
<path d="M15.9991 25.3333C16.9809 25.3333 17.7769 24.3384 17.7769 23.1111C17.7769 21.8838 16.9809 20.8889 15.9991 20.8889C15.0173 20.8889 14.2213 21.8838 14.2213 23.1111C14.2213 24.3384 15.0173 25.3333 15.9991 25.3333Z" fill="#664500"/>
<path d="M7.20979 19.0071C7.04802 19.0071 6.88357 18.9627 6.73691 18.8702C6.32179 18.6089 6.19735 18.0604 6.45868 17.6444C7.27291 16.3529 9.74846 14.144 13.2942 15.0116C13.7707 15.128 14.0622 15.6098 13.9458 16.0862C13.8285 16.5627 13.3449 16.8524 12.8711 16.7378C9.66757 15.9538 7.98046 18.5653 7.96357 18.592C7.79379 18.8604 7.50491 19.0071 7.20979 19.0071V19.0071ZM17.8525 15.6809C17.5947 15.6809 17.3405 15.5698 17.1645 15.3556C16.8533 14.976 16.9085 14.4151 17.2889 14.104C20.112 11.7893 23.2996 12.7156 24.5911 13.5298C25.0062 13.7911 25.1307 14.3404 24.8685 14.7556C24.608 15.1689 24.0614 15.2951 23.6454 15.0356C23.5227 14.9609 20.9325 13.4151 18.4151 15.4791C18.2498 15.6151 18.0507 15.6809 17.8525 15.6809Z" fill="#664500"/>
<path d="M11.8631 27.7982C11.8027 27.7982 11.7413 27.7902 11.6809 27.7733C11.3271 27.6729 11.1209 27.3049 11.2213 26.9502C11.6098 25.5813 11.4507 24.2578 10.7858 23.3182C10.344 22.6942 9.71466 22.3129 9.05866 22.2711C8.69066 22.2489 8.41155 21.9316 8.43466 21.5644C8.45777 21.1973 8.77332 20.8969 9.14132 20.9413C10.2018 21.0071 11.1973 21.5929 11.8729 22.5476C12.7715 23.8178 13.0018 25.5547 12.5031 27.3129C12.4204 27.6071 12.1529 27.7982 11.8631 27.7982ZM21.6738 25.0773C21.5475 25.0773 21.4204 25.0418 21.3075 24.9671C20.2702 24.2827 19.6898 23.0853 19.7147 21.6827C19.7404 20.2293 20.4338 18.88 21.4782 18.2436C21.792 18.0516 22.2018 18.1511 22.3938 18.4667C22.5858 18.7813 22.4862 19.1902 22.1707 19.3822C21.5173 19.7804 21.0649 20.7147 21.0471 21.7058C21.0293 22.6436 21.3929 23.4267 22.0409 23.8542C22.3484 24.0569 22.4329 24.4702 22.2302 24.7778C22.1022 24.9724 21.8907 25.0773 21.6738 25.0773V25.0773Z" fill="#E2A62D"/>
<path d="M15.2702 2.41778C15.232 2.37422 15.1725 2.35022 15.1022 2.33689C15.1022 2.33689 0.947563 -0.350223 0.335118 0.190222C-0.276437 0.731555 0.657785 15.1093 0.657785 15.1093C0.662229 15.1813 0.678229 15.2427 0.71734 15.2862C1.25423 15.8942 4.94667 13.5049 8.96534 9.952C12.9849 6.39822 15.8071 3.02578 15.2702 2.41778V2.41778Z" fill="#DD2E44"/>
<path d="M0.310237 0.240889C0.296903 0.267556 0.285348 0.304 0.276459 0.350223C0.417792 1.56889 1.78313 11.5964 2.63379 14.7307C3.91024 14.0169 5.20713 13.0471 6.73068 11.8391C5.43646 9.47022 1.02935 0.129778 0.310237 0.240889Z" fill="#EA596E"/>
<path d="M26.5796 25.9813L17.1813 24.8231C16.1769 24.7324 14.4107 24.7236 14.5013 23.1324C14.584 21.6898 16.3147 21.912 17.5938 22.1013L27.0498 23.6782L26.5796 25.9813V25.9813Z" fill="#3B88C3"/>
<path d="M27.0489 23.6791L23.296 23.0356C22.8569 22.9564 22.4658 23.6107 22.4462 24.3031C22.424 25.0729 22.648 25.4622 23.0915 25.5529L26.7751 26.008L27.0489 23.6791V23.6791Z" fill="#88C9F9"/>
<path d="M31.0382 23.4142L28.7075 25.5573L24.5413 21.0267L26.872 18.8836C28.0818 17.7707 29.9822 17.8507 31.0951 19.0604L31.2151 19.1911C32.3271 20.4018 32.248 22.3013 31.0382 23.4142Z" fill="#3B88C3"/>
<path d="M28.7061 25.5586C29.7072 24.6382 29.5861 22.8778 28.4358 21.6267C27.2855 20.3756 25.5415 20.1075 24.5404 21.0279C23.5394 21.9483 23.6604 23.7086 24.8108 24.9598C25.9611 26.2109 27.7051 26.479 28.7061 25.5586Z" fill="#88C9F9"/>
<path d="M27.8729 24.6523C28.3734 24.1921 28.2197 23.2106 27.5295 22.46C26.8394 21.7094 25.8742 21.474 25.3737 21.9342C24.8732 22.3944 25.0269 23.3759 25.717 24.1265C26.4071 24.8771 27.3723 25.1125 27.8729 24.6523Z" fill="#226699"/>
<path d="M2.22225 31.1111C2.95863 31.1111 3.55558 30.5142 3.55558 29.7778C3.55558 29.0414 2.95863 28.4444 2.22225 28.4444C1.48587 28.4444 0.888916 29.0414 0.888916 29.7778C0.888916 30.5142 1.48587 31.1111 2.22225 31.1111Z" fill="#55ACEE"/>
<path d="M25.7778 3.55556C26.7596 3.55556 27.5556 2.75962 27.5556 1.77778C27.5556 0.795938 26.7596 0 25.7778 0C24.7959 0 24 0.795938 24 1.77778C24 2.75962 24.7959 3.55556 25.7778 3.55556Z" fill="#55ACEE"/>
<path d="M4.32354 25.9964L2.24532 21.0044L0.366211 26.3778L4.32354 25.9964ZM23.1111 4.44445L19.5555 5.33333L20.4444 1.77778L23.1111 4.44445Z" fill="#EA596E"/>
<path d="M28.4435 11.5556L32 7.11022L29.3333 5.33334L28.4435 11.5556Z" fill="#77B255"/>
</svg>
