<svg width="32" height="32" viewBox="0 0 32 32" fill="none" xmlns="http://www.w3.org/2000/svg">
<path d="M32 16C32 24.8364 24.8364 32 16 32C7.16356 32 0 24.8364 0 16C0 7.16356 7.16356 0 16 0C24.8364 0 32 7.16356 32 16Z" fill="#FFCC4D"/>
<path d="M25.1663 13.8773C25.0107 13.7511 24.7876 13.7467 24.6241 13.8649C24.6134 13.8729 23.5032 14.6667 21.3334 14.6667C19.1645 14.6667 18.0534 13.8729 18.0445 13.8667C17.8818 13.7449 17.6578 13.7485 17.5014 13.8747C17.3432 14.0009 17.2898 14.2178 17.3716 14.4027C17.4249 14.5227 18.7049 17.3333 21.3334 17.3333C23.9627 17.3333 25.2418 14.5227 25.2952 14.4027C25.3769 14.2187 25.3236 14.0036 25.1663 13.8773ZM13.9574 13.8649C13.9467 13.8729 12.8374 14.6667 10.6667 14.6667C8.49695 14.6667 7.38672 13.8729 7.37784 13.8667C7.21517 13.7449 6.99206 13.7485 6.83472 13.8747C6.6765 14.0009 6.62317 14.2178 6.70495 14.4027C6.75828 14.5227 8.03828 17.3333 10.6667 17.3333C13.2961 17.3333 14.5752 14.5227 14.6285 14.4027C14.7103 14.2187 14.6569 14.0036 14.4996 13.8773C14.3432 13.7502 14.1192 13.7467 13.9574 13.8649ZM25.7787 11.5556C25.5076 11.5556 25.2418 11.4329 25.0667 11.2C22.7627 8.12801 18.8792 8.86401 18.8409 8.87112C18.3547 8.96712 17.8916 8.65512 17.7947 8.17423C17.6987 7.69334 18.0107 7.2249 18.4916 7.12801C18.6969 7.08623 23.5201 6.17512 26.4881 10.1325C26.7832 10.5253 26.7032 11.0827 26.3103 11.3769C26.1512 11.4978 25.9645 11.5556 25.7787 11.5556V11.5556ZM6.22139 11.5556C6.0365 11.5556 5.84895 11.4978 5.68895 11.3778C5.29606 11.0836 5.21695 10.5262 5.51117 10.1333C8.47917 6.17423 13.3032 7.08801 13.5076 7.1289C13.9894 7.2249 14.3014 7.69334 14.2045 8.17512C14.1085 8.65512 13.6409 8.96712 13.1609 8.8729C12.9956 8.84179 9.21784 8.15468 6.93339 11.2C6.75917 11.4329 6.49161 11.5556 6.22139 11.5556V11.5556ZM20.6703 20.9573C20.5032 20.8587 20.2863 20.8809 20.1396 21.0107C20.1307 21.0178 19.2392 21.7778 16.0001 21.7778C12.7636 21.7778 11.8703 21.0187 11.8703 21.0187C11.7289 20.8765 11.5112 20.8498 11.3369 20.9458C11.1636 21.0445 11.0765 21.2471 11.1254 21.4409C11.1343 21.48 12.1423 25.3333 16.0001 25.3333C19.8578 25.3333 20.8658 21.48 20.8756 21.4409C20.9227 21.2516 20.8365 21.0578 20.6703 20.9573V20.9573Z" fill="#664500"/>
</svg>
