<svg width="32" height="32" viewBox="0 0 32 32" fill="none" xmlns="http://www.w3.org/2000/svg">
<path d="M32 16C32 24.8364 24.8364 32 16 32C7.16356 32 0 24.8364 0 16C0 7.16356 7.16356 0 16 0C24.8364 0 32 7.16356 32 16Z" fill="#FFCC4D"/>
<path fill-rule="evenodd" clip-rule="evenodd" d="M1.10223 9.79378C1.31557 10.0062 2.38046 10.6444 2.5929 11.2827C2.80623 11.92 3.2329 15.5351 4.51112 16.5991C5.82935 17.6942 10.8018 17.2871 11.7538 16.8124C13.8845 15.7502 14.1458 12.7849 14.5227 11.2827C14.7351 10.432 16.0133 10.432 16.0133 10.432C16.0133 10.432 17.2916 10.432 17.5049 11.2818C17.8818 12.7849 18.1449 15.7502 20.2738 16.8116C21.2267 17.2871 26.1991 17.6951 27.5191 16.6C28.7956 15.536 29.2213 11.9209 29.4347 11.2827C29.6462 10.6453 30.7129 10.0071 30.9253 9.79467C31.1396 9.58222 31.1396 8.73156 30.9253 8.51822C30.4996 8.09333 25.4729 7.71467 20.0605 8.30578C18.9805 8.424 18.5698 8.73067 16.0125 8.73067C13.4569 8.73067 13.0445 8.42311 11.9653 8.30578C6.55646 7.71378 1.5289 8.09244 1.10223 8.51733C0.889791 8.72978 0.889791 9.58133 1.10223 9.79378V9.79378Z" fill="#292F33"/>
<path d="M24.2978 21.0036C24.1396 20.8604 23.9031 20.8516 23.7334 20.9778C23.6987 21.0036 20.2471 23.5556 16 23.5556C11.7636 23.5556 8.30047 21.0036 8.26669 20.9778C8.09691 20.8516 7.86047 20.8622 7.70225 21.0036C7.54491 21.1458 7.50936 21.3804 7.61869 21.5618C7.73336 21.7529 10.4782 26.2222 16 26.2222C21.5218 26.2222 24.2676 21.7529 24.3814 21.5618C24.4907 21.3796 24.456 21.1458 24.2978 21.0036V21.0036Z" fill="#664500"/>
</svg>
