<svg width="32" height="32" viewBox="0 0 32 32" fill="none" xmlns="http://www.w3.org/2000/svg">
<path d="M32 16C32 24.8364 24.8364 32 16 32C7.16444 32 0 24.8364 0 16C0 7.16444 7.16444 0 16 0C24.8364 0 32 7.16444 32 16Z" fill="#FFCC4D"/>
<path d="M6.22223 18.9005C6.22223 22.424 10.3076 26.9005 16 26.9005C21.6925 26.9005 25.7778 22.456 25.7778 18.9005C25.7778 18.9005 16.5929 21.3502 6.22223 18.9005Z" fill="#664500"/>
<path d="M10.6667 20.4471V26.6347C10.6667 29.3013 12.4445 31.968 16.0001 31.968C19.5556 31.968 21.3334 29.3013 21.3334 26.6347V20.4836C15.7414 21.632 10.6667 20.4471 10.6667 20.4471V20.4471Z" fill="#5D9040"/>
<path d="M10.9191 10.96C10.2471 10.7004 9.61155 10.4551 9.61155 10.0996C9.61155 9.51378 10.3973 9.48356 10.5547 9.48356C11.1102 9.48356 11.3867 9.69156 11.6302 9.87556C11.8169 10.0169 12.0107 10.1627 12.28 10.1627C12.7813 10.1627 13.0098 9.80978 13.0098 9.48178C13.0098 8.82756 12.208 8.36533 11.3582 8.17156V7.82222C11.3582 7.36178 10.984 6.98756 10.5235 6.98756C10.0631 6.98756 9.68888 7.36178 9.68888 7.82222V8.20089C8.67199 8.49689 8.04888 9.24445 8.04888 10.1876C8.04888 11.3529 9.19821 11.8311 10.2124 12.2524C10.9387 12.5547 11.6249 12.84 11.6249 13.2853C11.6249 13.6107 11.216 13.9627 10.5555 13.9627C9.88888 13.9627 9.50666 13.696 9.16888 13.4613C8.93599 13.2987 8.71555 13.1449 8.45243 13.1449C8.07021 13.1449 7.77155 13.4667 7.77155 13.8773C7.77155 14.4809 8.5991 15.0827 9.68888 15.2942V15.712C9.68888 16.1724 10.0631 16.5458 10.5235 16.5458C10.984 16.5458 11.3582 16.1716 11.3582 15.712L11.3538 15.2693C12.5058 14.9893 13.1867 14.1831 13.1867 13.0836C13.1875 11.8356 11.9298 11.3502 10.9191 10.96V10.96ZM23.728 13.0987C23.728 11.8507 22.4702 11.3653 21.4595 10.9751C20.7875 10.7156 20.1529 10.4702 20.1529 10.1147C20.1529 9.52889 20.9387 9.49867 21.096 9.49867C21.6515 9.49867 21.9271 9.70667 22.1715 9.89067C22.3591 10.032 22.552 10.1778 22.8204 10.1778C23.3227 10.1778 23.5511 9.82489 23.5511 9.49689C23.5511 8.84178 22.7493 8.38045 21.8995 8.18667V7.83822C21.8995 7.37778 21.5244 7.00356 21.0649 7.00356C20.6044 7.00356 20.2293 7.37778 20.2293 7.83822V8.21689C19.2133 8.51289 18.5893 9.26045 18.5893 10.2036C18.5893 11.3689 19.7387 11.8471 20.7529 12.2684C21.4791 12.5707 22.1653 12.856 22.1653 13.3013C22.1653 13.6267 21.7573 13.9787 21.0969 13.9787C20.4302 13.9787 20.048 13.712 19.7111 13.4773C19.4773 13.3147 19.2569 13.1609 18.9947 13.1609C18.6115 13.1609 18.3129 13.4827 18.3129 13.8933C18.3129 14.4969 19.1404 15.0987 20.2293 15.3102V15.728C20.2293 16.1876 20.6053 16.5618 21.0658 16.5618C21.5262 16.5618 21.8995 16.1876 21.8995 15.728L21.8969 15.2853C23.048 15.0036 23.728 14.1982 23.728 13.0987V13.0987Z" fill="#664500"/>
<path d="M18.64 27.6169C18.64 26.4009 17.4142 25.9271 16.4293 25.5467C15.7742 25.2942 15.1547 25.0542 15.1547 24.7084C15.1547 24.1369 15.92 24.1084 16.0738 24.1084C16.6151 24.1084 16.8844 24.312 17.1227 24.4907C17.3049 24.6284 17.4942 24.7707 17.7564 24.7707C18.2453 24.7707 18.4684 24.4258 18.4684 24.1067C18.4684 23.4693 17.6871 23.0187 16.8578 22.8293V22.4889C16.8578 22.04 16.4924 21.6747 16.0435 21.6747C15.5947 21.6747 15.2293 22.04 15.2293 22.4889V22.8578C14.2382 23.1458 13.6302 23.8756 13.6302 24.7947C13.6302 25.9307 14.7511 26.3973 15.7395 26.808C16.448 27.1022 17.1164 27.3804 17.1164 27.8142C17.1164 28.1316 16.7182 28.4747 16.0738 28.4747C15.424 28.4747 15.0515 28.2151 14.7227 27.9849C14.496 27.8267 14.2809 27.6764 14.0249 27.6764C13.6524 27.6764 13.36 27.9911 13.36 28.3911C13.36 28.9804 14.1662 29.5662 15.2284 29.7724V30.1804C15.2284 30.6284 15.5938 30.9929 16.0435 30.9929C16.4924 30.9929 16.8569 30.6284 16.8569 30.1804L16.8542 29.7484C17.9769 29.4738 18.64 28.688 18.64 27.6169V27.6169Z" fill="white"/>
</svg>
