<svg width="32" height="32" viewBox="0 0 32 32" fill="none" xmlns="http://www.w3.org/2000/svg">
<path d="M32 16C32 24.8364 24.8364 32 16 32C7.16444 32 0 24.8364 0 16C0 7.16444 7.16444 0 16 0C24.8364 0 32 7.16444 32 16Z" fill="#FFCC4D"/>
<path d="M10.2222 17.7778C11.4495 17.7778 12.4444 16.3849 12.4444 14.6667C12.4444 12.9484 11.4495 11.5555 10.2222 11.5555C8.99492 11.5555 8 12.9484 8 14.6667C8 16.3849 8.99492 17.7778 10.2222 17.7778Z" fill="#664500"/>
<path d="M21.7778 17.7778C23.0051 17.7778 24 16.3849 24 14.6667C24 12.9484 23.0051 11.5555 21.7778 11.5555C20.5505 11.5555 19.5555 12.9484 19.5555 14.6667C19.5555 16.3849 20.5505 17.7778 21.7778 17.7778Z" fill="#664500"/>
<path d="M22.2222 23.1111H9.7778C9.28714 23.1111 8.88892 22.7138 8.88892 22.2222C8.88892 21.7306 9.28714 21.3333 9.7778 21.3333H22.2222C22.7138 21.3333 23.1111 21.7306 23.1111 22.2222C23.1111 22.7138 22.7138 23.1111 22.2222 23.1111Z" fill="#664500"/>
</svg>
