<svg width="32" height="32" viewBox="0 0 32 32" fill="none" xmlns="http://www.w3.org/2000/svg">
<path d="M32 16C32 24.8364 24.8364 32 16 32C7.16356 32 0 24.8364 0 16C0 7.16356 7.16356 0 16 0C24.8364 0 32 7.16356 32 16Z" fill="#FFCC4D"/>
<path d="M17.7787 11.5556C17.7298 11.5556 17.6818 11.552 17.632 11.5431C17.1476 11.4622 16.8205 11.0045 16.9014 10.52C17.2507 8.41868 19.1858 4.44446 24 4.44446C24.4916 4.44446 24.8889 4.84268 24.8889 5.33335C24.8889 5.82401 24.4916 6.22224 24 6.22224C19.4712 6.22224 18.6854 10.6258 18.6543 10.8133C18.5823 11.2471 18.2054 11.5556 17.7787 11.5556ZM14.2214 11.5556C13.7956 11.5556 13.4196 11.2489 13.3458 10.8151C13.3129 10.6285 12.4969 6.22224 8.00004 6.22224C7.50938 6.22224 7.11115 5.82401 7.11115 5.33335C7.11115 4.84268 7.50938 4.44446 8.00004 4.44446C12.8143 4.44446 14.7485 8.41868 15.0987 10.52C15.1796 11.0045 14.8525 11.4622 14.368 11.5431C14.3192 11.552 14.2694 11.5556 14.2214 11.5556ZM10.1423 15.904C8.06671 15.904 6.70226 15.0178 6.61871 14.9618C6.21071 14.6898 6.10049 14.1378 6.37249 13.7289C6.64449 13.32 7.1956 13.2089 7.60537 13.4827C7.69337 13.5396 9.91826 14.9369 12.9369 13.4276C13.3769 13.208 13.9103 13.3867 14.1298 13.8249C14.3494 14.264 14.1716 14.7982 13.7325 15.0178C12.4036 15.6809 11.1832 15.904 10.1423 15.904V15.904ZM21.8587 15.904C20.8169 15.904 19.5965 15.6809 18.2694 15.0169C17.8303 14.7973 17.6525 14.2631 17.872 13.824C18.0925 13.3849 18.6258 13.2071 19.0649 13.4267C22.0872 14.9378 24.3085 13.5387 24.4018 13.4791C24.8107 13.2142 25.3627 13.328 25.6303 13.736C25.8987 14.144 25.7894 14.6907 25.3832 14.9618C25.2978 15.0178 23.9334 15.904 21.8587 15.904V15.904ZM23.112 24C22.8409 24 22.5752 23.8773 22.4 23.6445C22.3778 23.6142 19.9272 20.4445 16 20.4445C12.0738 20.4445 9.62315 23.6142 9.59826 23.6471C9.30226 24.0365 8.74404 24.1138 8.35382 23.8196C7.96271 23.5245 7.8836 22.9698 8.17782 22.5778C8.29782 22.4178 11.1663 18.6667 16 18.6667C20.8338 18.6667 23.7023 22.4187 23.8223 22.5778C24.1174 22.9698 24.0374 23.5271 23.6445 23.8213C23.4845 23.9422 23.2978 24 23.112 24V24Z" fill="#664500"/>
<path d="M13.6809 17.8489C13.2782 17.6755 12.8107 17.8249 12.5796 18.1955L8.13511 25.3067C7.96444 25.5813 7.95466 25.9262 8.112 26.2089C8.26844 26.4915 8.56533 26.6667 8.88889 26.6667H11.5556C11.9636 26.6667 12.3191 26.3893 12.4178 25.9929L14.1956 18.8818C14.3013 18.4587 14.0836 18.0195 13.6809 17.8489V17.8489ZM23.8649 25.3067L19.4204 18.1955C19.1876 17.824 18.7209 17.6764 18.32 17.8489C17.9173 18.0195 17.6987 18.4587 17.8053 18.8818L19.5831 25.9929C19.6818 26.3893 20.0364 26.6667 20.4444 26.6667H23.1111C23.4338 26.6667 23.7316 26.4915 23.8889 26.208C24.0453 25.9262 24.0364 25.5804 23.8649 25.3067V25.3067Z" fill="#F5F8FA"/>
<path d="M28.4285 26.8249C28.4312 26.7716 28.4445 26.7209 28.4445 26.6667C28.4445 25.1947 27.2498 24 25.7778 24C24.8649 24 24.0605 24.4604 23.5796 25.16C23.1618 24.9867 22.7032 24.8889 22.2223 24.8889C20.2587 24.8889 18.6667 26.4809 18.6667 28.4444C18.6667 30.408 20.2587 32 22.2223 32C23.4356 32 24.5049 31.3893 25.1467 30.4613C25.5734 31.368 26.4872 32 27.5556 32C29.0285 32 30.2223 30.8062 30.2223 29.3333C30.2223 28.1671 29.4703 27.1876 28.4285 26.8249ZM9.77783 24.8889C9.29605 24.8889 8.83916 24.9867 8.4205 25.16C7.93961 24.4604 7.13517 24 6.22228 24C4.75028 24 3.55561 25.1947 3.55561 26.6667C3.55561 26.7209 3.56805 26.7716 3.57161 26.8249C2.52983 27.1876 1.77783 28.1671 1.77783 29.3333C1.77783 30.8062 2.97161 32 4.4445 32C5.51294 32 6.42761 31.368 6.8525 30.4613C7.49517 31.3893 8.56361 32 9.77783 32C11.7414 32 13.3334 30.408 13.3334 28.4444C13.3334 26.4809 11.7414 24.8889 9.77783 24.8889Z" fill="#E1E8ED"/>
</svg>
