<svg width="32" height="32" viewBox="0 0 32 32" fill="none" xmlns="http://www.w3.org/2000/svg">
<path d="M31.6416 12.6479C33.4928 21.2862 27.9907 29.7904 19.3523 31.6416C10.7138 33.4928 2.20962 27.9907 0.358399 19.3524C-1.49282 10.714 4.01018 2.2099 12.6477 0.358698C21.2861 -1.49339 29.7903 4.00955 31.6416 12.6479Z" fill="#FFCB4C"/>
<path d="M26.031 8.00878C26.7233 11.2402 24.665 14.4218 21.4336 15.1141C18.2022 15.8064 15.0206 13.7481 14.3274 10.5167C13.6351 7.28537 15.6933 4.10376 18.9248 3.41145C22.1562 2.71913 25.3387 4.77652 26.031 8.00878Z" fill="#F4F7F9"/>
<path d="M19.8295 10.067C20.8293 10.067 21.6398 9.25654 21.6398 8.25673C21.6398 7.25692 20.8293 6.44641 19.8295 6.44641C18.8297 6.44641 18.0192 7.25692 18.0192 8.25673C18.0192 9.25654 18.8297 10.067 19.8295 10.067Z" fill="#292F33"/>
<path d="M12.526 12.6923C12.9312 14.5817 11.727 16.4418 9.83759 16.8471C7.94816 17.2523 6.08805 16.0481 5.68279 14.1587C5.27753 12.2693 6.48176 10.4092 8.37119 10.004C10.2606 9.5987 12.1207 10.8029 12.526 12.6923V12.6923Z" fill="#F4F7F9"/>
<path d="M9.46665 15.7792C10.3987 15.5795 10.9923 14.662 10.7926 13.73C10.5929 12.798 9.67541 12.2043 8.74338 12.404C7.81135 12.6038 7.2177 13.5212 7.41742 14.4532C7.61715 15.3853 8.53462 15.9789 9.46665 15.7792Z" fill="#292F33"/>
<path d="M16.5581 18.6067C13.4094 19.2813 11.2427 19.3621 8.5507 19.4137C7.93659 19.427 6.81324 19.7861 7.18562 21.5244C7.93037 25.0002 12.8548 28.4893 18.4209 27.2966C23.9861 26.104 27.0486 20.9032 26.3039 17.4274C25.9315 15.6891 24.7584 15.8206 24.1932 16.0623C21.7172 17.1172 19.7069 17.9322 16.5581 18.6067Z" fill="#65471B"/>
<path d="M9.78156 21.3324V26.6648C9.78156 29.3309 11.559 31.9971 15.1139 31.9971C18.6688 31.9971 20.4463 29.3309 20.4463 26.6648V21.3324H9.78156V21.3324Z" fill="#E8596E"/>
<path d="M15.1139 28.3347C15.3814 28.3347 15.5983 28.1178 15.5983 27.8503V22.2558H14.6287V27.8503C14.6296 28.1178 14.8464 28.3347 15.1139 28.3347V28.3347Z" fill="#DD2F45"/>
<path d="M8.92303 21.152C8.92303 21.152 11.7163 21.4622 16.9305 20.3451C22.1446 19.228 24.5655 17.7998 24.5655 17.7998C24.5655 17.7998 23.5728 21.6479 17.4895 22.9517C11.4061 24.2554 8.92303 21.152 8.92303 21.152V21.152Z" fill="white"/>
</svg>
